<svg width="36" height="36" viewBox="0 0 36 36" fill="none" xmlns="http://www.w3.org/2000/svg">
<g clip-path="url(#clip0_0_3684)">
<path d="M36 18C36 8.05888 27.9411 0 18 0C8.05888 0 0 8.05888 0 18C0 27.9411 8.05888 36 18 36C27.9411 36 36 27.9411 36 18Z" fill="#2C3036"/>
<path d="M20.4437 20.4456C18.4514 22.5013 18.3065 25.0641 18.1344 30.6788C23.3687 30.6788 26.982 30.6607 28.8475 28.8495C30.6587 26.984 30.6768 23.1986 30.6768 18.1364C25.0622 18.3175 22.4994 18.4533 20.4437 20.4456ZM5.32031 18.1364C5.32031 23.1986 5.33844 26.984 7.14961 28.8495C9.01513 30.6607 12.6284 30.6788 17.8627 30.6788C17.6816 25.0641 17.5458 22.5013 15.5535 20.4456C13.4978 18.4533 10.935 18.3084 5.32031 18.1364ZM17.8627 5.32227C12.6375 5.32227 9.01513 5.34039 7.14961 7.15157C5.33844 9.01709 5.32031 12.8024 5.32031 17.8647C10.935 17.6836 13.4978 17.5477 15.5535 15.5554C17.5458 13.4997 17.6907 10.9369 17.8627 5.32227ZM20.4437 15.5554C18.4514 13.4997 18.3065 10.9369 18.1344 5.32227C23.3687 5.32227 26.982 5.34039 28.8475 7.15157C30.6587 9.01709 30.6768 12.8024 30.6768 17.8647C25.0622 17.6836 22.4994 17.5477 20.4437 15.5554Z" fill="#2C3036"/>
<path d="M30.6768 18.1364V17.8647C25.0622 17.6836 22.4994 17.5477 20.4437 15.5554C18.4514 13.4997 18.3065 10.9369 18.1344 5.32227H17.8627C17.6816 10.9369 17.5458 13.4997 15.5535 15.5554C13.4978 17.5477 10.935 17.6926 5.32031 17.8647V18.1364C10.935 18.3175 13.4978 18.4533 15.5535 20.4456C17.5458 22.5013 17.6907 25.0641 17.8627 30.6788H18.1344C18.3155 25.0641 18.4514 22.5013 20.4437 20.4456C22.4994 18.4533 25.0622 18.3084 30.6768 18.1364Z" fill="#FCFCFC"/>
</g>
<defs>
<clipPath id="clip0_0_3684">
<rect width="36" height="36" fill="white"/>
</clipPath>
</defs>
</svg>
