<svg width="36" height="36" viewBox="0 0 36 36" fill="none" xmlns="http://www.w3.org/2000/svg">
<g clip-path="url(#clip0_0_3672)">
<path d="M36 18C36 8.05888 27.9411 0 18 0C8.05888 0 0 8.05888 0 18C0 27.9411 8.05888 36 18 36C27.9411 36 36 27.9411 36 18Z" fill="#27A6E5"/>
<path fill-rule="evenodd" clip-rule="evenodd" d="M24.8349 10.7338C25.8566 10.3036 26.9519 11.1675 26.7715 12.2613L24.6407 25.1807C24.4352 26.4263 23.0671 27.1411 21.9242 26.5203C20.9679 26.0009 19.5491 25.2014 18.2704 24.3659C17.6318 23.9486 15.6767 22.6107 15.917 21.6584C16.1225 20.8441 19.4093 17.7845 21.2876 15.9649C22.0254 15.2502 21.6894 14.8373 20.818 15.4953C18.6565 17.1278 15.1863 19.6098 14.0387 20.3084C13.0262 20.9246 12.4975 21.0298 11.867 20.9246C10.7155 20.7328 9.64789 20.4356 8.77628 20.0743C7.59827 19.586 7.65565 17.9671 8.7755 17.4957L24.8349 10.7338Z" fill="#FCFCFC"/>
</g>
<defs>
<clipPath id="clip0_0_3672">
<rect width="36" height="36" fill="white"/>
</clipPath>
</defs>
</svg>
