<svg width="36" height="36" viewBox="0 0 36 36" fill="none" xmlns="http://www.w3.org/2000/svg">
<g clip-path="url(#clip0_0_3678)">
<path d="M36 18C36 8.05888 27.9411 0 18 0C8.05888 0 0 8.05888 0 18C0 27.9411 8.05888 36 18 36C27.9411 36 36 27.9411 36 18Z" fill="#111111"/>
<path d="M27.9686 13.276C27.2787 13.276 26.5955 13.1401 25.9581 12.8761C25.3208 12.6121 24.7416 12.2251 24.2538 11.7373C23.7659 11.2494 23.3789 10.6703 23.1149 10.0329C22.8509 9.39552 22.715 8.71237 22.715 8.02246H18.9617V22.7199C18.961 23.3899 18.7494 24.0428 18.3569 24.5859C17.9644 25.129 17.4109 25.5348 16.7749 25.7458C16.1389 25.9568 15.4527 25.9623 14.8134 25.7614C14.1741 25.5606 13.6142 25.1637 13.2132 24.6269C12.8121 24.0901 12.5901 23.4407 12.5787 22.7707C12.5673 22.1007 12.7671 21.4441 13.1497 20.894C13.5323 20.3439 14.0784 19.9282 14.7105 19.7057C15.3426 19.4833 16.0286 19.4654 16.6714 19.6547V16.0062C15.3053 15.822 13.9156 16.0589 12.6877 16.6854C11.4598 17.3118 10.4523 18.2979 9.79963 19.5121C9.14696 20.7262 8.88023 22.1106 9.03506 23.4803C9.18988 24.85 9.75889 26.1399 10.6661 27.1777C11.5733 28.2155 12.7755 28.9519 14.1123 29.2884C15.449 29.625 16.8566 29.5457 18.1471 29.0613C19.4376 28.5768 20.5495 27.7101 21.3345 26.577C22.1195 25.4439 22.5401 24.0983 22.5402 22.7199L22.6491 15.2907C24.1912 16.4228 26.0551 17.032 27.9682 17.0292L27.9686 13.276Z" fill="url(#paint0_linear_0_3678)"/>
<path d="M26.9762 12.2536C25.5829 12.2535 24.2467 11.7 23.2615 10.7148C22.2763 9.72955 21.7228 8.3933 21.7229 7H17.9695V21.6974C17.9688 22.3675 17.7572 23.0203 17.3648 23.5635C16.9723 24.1066 16.4188 24.5124 15.7828 24.7234C15.1468 24.9344 14.4605 24.9399 13.8212 24.7391C13.182 24.5382 12.6221 24.1413 12.221 23.6045C11.8199 23.0677 11.5979 22.4183 11.5865 21.7483C11.5751 21.0783 11.7749 20.4217 12.1575 19.8716C12.5401 19.3215 13.0862 18.9058 13.7183 18.6833C14.3504 18.4609 15.0364 18.443 15.6792 18.6323V14.9837C14.3132 14.7995 12.9234 15.0364 11.6955 15.6629C10.4677 16.2893 9.46011 17.2755 8.80745 18.4896C8.15478 19.7037 7.88805 21.0881 8.04287 22.4578C8.19769 23.8275 8.7667 25.1174 9.67391 26.1552C10.5811 27.193 11.7834 27.9294 13.1201 28.266C14.4568 28.6025 15.8644 28.5233 17.1549 28.0388C18.4454 27.5543 19.5574 26.6876 20.3424 25.5545C21.1273 24.4214 21.5479 23.0758 21.548 21.6974L21.6575 14.2683C23.1997 15.4004 25.0635 16.0096 26.9766 16.0067L26.9762 12.2536Z" fill="url(#paint1_linear_0_3678)"/>
<path d="M26.9754 13.182C25.6767 12.9322 24.5201 12.2017 23.7364 11.1365C22.7458 10.3613 22.0664 9.25627 21.8216 8.02246H18.9609V22.7199C18.9608 23.4174 18.7325 24.0958 18.3108 24.6514C17.8891 25.207 17.2972 25.6094 16.6254 25.7971C15.9536 25.9848 15.2388 25.9476 14.5901 25.691C13.9415 25.4344 13.3946 24.9727 13.033 24.3762C12.3899 23.9576 11.9189 23.3216 11.7061 22.5844C11.4932 21.8472 11.5527 21.0581 11.8737 20.3611C12.1947 19.6642 12.7557 19.106 13.4543 18.7886C14.1528 18.4711 14.9423 18.4157 15.6784 18.6323V15.9474C14.4158 15.9636 13.1829 16.3325 12.1189 17.0123C11.0548 17.6921 10.2019 18.6559 9.65657 19.7947C9.1112 20.9335 8.89501 22.2021 9.03242 23.4573C9.16982 24.7125 9.65535 25.9043 10.4342 26.8982C11.423 27.7232 12.6264 28.2493 13.9035 28.4148C15.1806 28.5802 16.4785 28.3782 17.6448 27.8323C18.8112 27.2865 19.7978 26.4194 20.4889 25.3328C21.1801 24.2463 21.5472 22.9852 21.5472 21.6974L21.6567 14.2683C23.1988 15.4004 25.0627 16.0095 26.9757 16.0067L26.9754 13.182Z" fill="url(#paint2_linear_0_3678)"/>
</g>
<defs>
<linearGradient id="paint0_linear_0_3678" x1="10.4964" y1="27.0287" x2="26.1089" y2="11.4162" gradientUnits="userSpaceOnUse">
<stop stop-color="#B5053C"/>
<stop offset="0.233" stop-color="#C90441"/>
<stop offset="0.737" stop-color="#F0014B"/>
<stop offset="1" stop-color="#FF004F"/>
</linearGradient>
<linearGradient id="paint1_linear_0_3678" x1="9.27164" y1="26.2386" x2="25.7173" y2="9.79299" gradientUnits="userSpaceOnUse">
<stop stop-color="#00B2C9"/>
<stop offset="0.283" stop-color="#00C8D4"/>
<stop offset="0.741" stop-color="#00E6E4"/>
<stop offset="1" stop-color="#00F1EA"/>
</linearGradient>
<linearGradient id="paint2_linear_0_3678" x1="0.057129" y1="36.4597" x2="36.4598" y2="0.0570516" gradientUnits="userSpaceOnUse">
<stop stop-color="#DDE3E4"/>
<stop offset="1" stop-color="#FCF7F7"/>
</linearGradient>
<clipPath id="clip0_0_3678">
<rect width="36" height="36" fill="white"/>
</clipPath>
</defs>
</svg>
