<svg width="36" height="36" viewBox="0 0 36 36" fill="none" xmlns="http://www.w3.org/2000/svg">
<g clip-path="url(#clip0_0_3669)">
<path d="M36 18C36 8.05888 27.9411 0 18 0C8.05888 0 0 8.05888 0 18C0 27.9411 8.05888 36 18 36C27.9411 36 36 27.9411 36 18Z" fill="#0077FF"/>
<path d="M26.0897 22.0292C25.6739 21.5301 25.2014 21.0828 24.7445 20.6502C24.582 20.4963 24.4141 20.3373 24.2521 20.1791C23.7872 19.7246 23.7703 19.5538 24.1384 19.0375C24.393 18.6816 24.663 18.3252 24.9242 17.9806C25.161 17.6679 25.4059 17.3445 25.6407 17.0201L25.6889 16.9534C26.1375 16.3326 26.6016 15.6907 26.8485 14.9163C26.9126 14.712 26.9799 14.4113 26.826 14.16C26.6722 13.9087 26.3737 13.8321 26.1626 13.7963C26.0581 13.7786 25.9544 13.7762 25.8582 13.7762L22.9199 13.7741L22.8957 13.7739C22.4514 13.7739 22.152 13.9832 21.9805 14.414C21.8167 14.8255 21.6368 15.2638 21.4314 15.6805C21.0229 16.5103 20.504 17.466 19.7532 18.2631L19.7214 18.297C19.6328 18.3923 19.5323 18.5002 19.4589 18.5002C19.4476 18.5002 19.4354 18.4981 19.4215 18.4937C19.266 18.4331 19.1616 18.0566 19.1663 17.8814C19.1664 17.879 19.1664 17.8766 19.1664 17.8742L19.1644 14.4782C19.1644 14.4664 19.1635 14.4548 19.162 14.4431C19.0873 13.8911 18.9217 13.5474 18.2961 13.4249C18.2795 13.4215 18.2625 13.4199 18.2456 13.4199H15.1904C14.6926 13.4199 14.4184 13.6222 14.1606 13.925C14.091 14.006 13.9461 14.1745 14.0179 14.3789C14.0908 14.5864 14.3272 14.6307 14.4042 14.6451C14.7865 14.7179 15.0019 14.9517 15.0629 15.3602C15.1695 16.0696 15.1826 16.8267 15.1041 17.743C15.0823 17.9977 15.039 18.1944 14.9677 18.3624C14.9512 18.4016 14.8925 18.5296 14.8326 18.5296C14.8136 18.5296 14.7586 18.5222 14.6583 18.4531C14.4213 18.2908 14.2479 18.0591 14.0458 17.7729C13.358 16.8009 12.7809 15.7303 12.281 14.4989C12.0956 14.0456 11.7494 13.7918 11.3057 13.7844C10.8181 13.777 10.3761 13.7734 9.95448 13.7734C9.49384 13.7734 9.06679 13.7777 8.64975 13.7863C8.29275 13.7926 8.04583 13.8997 7.91588 14.1046C7.78575 14.3098 7.7942 14.5793 7.94108 14.9055C9.11665 17.519 10.1826 19.4192 11.3972 21.0672C12.2484 22.2203 13.1021 23.0184 14.0836 23.5787C15.1177 24.1703 16.2766 24.458 17.6264 24.458C17.7794 24.458 17.9376 24.4542 18.0971 24.4468C18.8814 24.4085 19.1724 24.1247 19.2092 23.361C19.2267 22.9707 19.2694 22.5614 19.4612 22.2124C19.5824 21.9925 19.6952 21.9925 19.7324 21.9925C19.8038 21.9925 19.8925 22.0254 19.9877 22.087C20.1584 22.1984 20.3047 22.3477 20.4248 22.4781C20.5377 22.602 20.6494 22.7271 20.7612 22.8524C21.0024 23.1226 21.2519 23.4019 21.5125 23.6669C22.0829 24.2472 22.7113 24.5025 23.433 24.4471H26.1269C26.1326 24.4471 26.1384 24.4469 26.1441 24.4465C26.4126 24.4288 26.645 24.2799 26.7819 24.038C26.9516 23.7383 26.9481 23.356 26.7728 23.0151C26.5739 22.6297 26.3158 22.3003 26.0897 22.0292Z" fill="#FCFCFC"/>
</g>
<defs>
<clipPath id="clip0_0_3669">
<rect width="36" height="36" fill="white"/>
</clipPath>
</defs>
</svg>
