<svg width="36" height="36" viewBox="0 0 36 36" fill="none" xmlns="http://www.w3.org/2000/svg">
<g clip-path="url(#clip0_0_3675)">
<path d="M36 18C36 8.05888 27.9411 0 18 0C8.05888 0 0 8.05888 0 18C0 27.9411 8.05888 36 18 36C27.9411 36 36 27.9411 36 18Z" fill="#F40000"/>
<path fill-rule="evenodd" clip-rule="evenodd" d="M15.7089 20.856L15.7083 15.0098L21.2906 17.943L15.7089 20.856ZM27.966 13.9967C27.966 13.9967 27.7639 12.563 27.1447 11.9316C26.3589 11.1025 25.4783 11.0986 25.0747 11.0505C22.1835 10.8398 17.8467 10.8398 17.8467 10.8398H17.8376C17.8376 10.8398 13.5008 10.8398 10.6096 11.0505C10.2054 11.0986 9.32537 11.1025 8.53894 11.9316C7.91977 12.563 7.71833 13.9967 7.71833 13.9967C7.71833 13.9967 7.51172 15.6808 7.51172 17.3643V18.943C7.51172 20.6271 7.71833 22.3106 7.71833 22.3106C7.71833 22.3106 7.91977 23.7444 8.53894 24.3757C9.32537 25.2048 10.3578 25.1788 10.8175 25.2653C12.4703 25.4252 17.8422 25.4746 17.8422 25.4746C17.8422 25.4746 22.1835 25.4681 25.0747 25.2574C25.4783 25.2087 26.3589 25.2048 27.1447 24.3757C27.7639 23.7444 27.966 22.3106 27.966 22.3106C27.966 22.3106 28.1726 20.6271 28.1726 18.943V17.3643C28.1726 15.6808 27.966 13.9967 27.966 13.9967Z" fill="#FCFCFC"/>
</g>
<defs>
<clipPath id="clip0_0_3675">
<rect width="36" height="36" fill="white"/>
</clipPath>
</defs>
</svg>
